<?xml version="1.0" encoding="utf-8"?>
<!-- Uploaded to: SVG Repo, www.svgrepo.com, Generator: SVG Repo Mixer Tools -->
<svg fill="#45BDEE" width="800px" height="800px" viewBox="0 0 32 32" version="1.1" xmlns="http://www.w3.org/2000/svg">
<title>battery-warn</title>
<path d="M12.563 1c-0.937 0-1.25 0.211-1.25 1.25v0.937h-2.813c-1.847 0-2.187 0.341-2.187 2.187v23.438c0 1.847 0.341 2.187 2.187 2.187h15c1.847 0 2.187-0.341 2.187-2.187v-23.438c0-1.847-0.341-2.187-2.187-2.187h-2.813v-0.937c0-1.038-0.312-1.25-1.25-1.25h-6.875zM8.5 7.563c0-2.5-0.312-2.187 2.187-2.187 1.25 0 9.688 0 10.625 0 2.5 0 2.187-0.312 2.187 2.187 0 1.25 0 17.813 0 19.063 0 2.5 0.312 2.187-2.187 2.187-1.25 0-9.375 0-10.625 0-2.5 0-2.187 0.312-2.187-2.187 0-1.251 0-17.813 0-19.063z"></path>
<path stroke="#eebd45" stroke-linecap="round" stroke-linejoin="round" stroke-width="3" d="M17.253 10.98 16 18.5l-1.253-7.52a1.27 1.27 0 1 1 2.506 0Z"/>
<circle cx="16" cy="24" r="1" stroke="#eebd45" stroke-width="2"/>
</svg>